<?xml version="1.0" encoding="UTF-8"?>
<svg width="19px" height="18px" viewBox="0 0 19 18" version="1.1" xmlns="http://www.w3.org/2000/svg" xmlns:xlink="http://www.w3.org/1999/xlink">
    <title>Group</title>
    <g id="Page-1" stroke="none" stroke-width="1" fill="none" fill-rule="evenodd">
        <g id="Group" transform="translate(0.000000, 0.000000)" fill="#000000" fill-rule="nonzero">
            <path d="M2.320316,10.47655 C0.796876,8.94141 0.035156,7.25391 6.10622664e-16,5.46094 C0.035156,2.4375 2.460936,0.011719 5.460936,0 C6.832026,0.011719 8.144526,0.515625 9.117186,1.45313 C10.113306,0.515625 11.425806,0.011719 12.820306,0 C15.796906,0.011719 18.246106,2.4375 18.257806,5.46094 C18.246106,7.25391 17.472706,8.94141 15.960906,10.47655 L9.117186,17.27345 L2.320316,10.47655 Z M1.453126,5.46094 C1.464846,6.84375 2.097656,8.19141 3.351566,9.46875 L9.117186,15.23435 L14.906206,9.46875 C16.171906,8.19141 16.804706,6.84375 16.828106,5.46094 C16.804706,3.24609 15.000006,1.45313 12.820306,1.45313 C11.589806,1.45313 10.464806,1.99219 9.117186,3.60937 C7.804686,1.99219 6.679686,1.45313 5.460936,1.45313 C3.257816,1.45313 1.464846,3.24609 1.453126,5.46094 Z" id="Shape"></path>
        </g>
    </g>
</svg>