<?xml version="1.0" encoding="UTF-8"?>
<svg width="17px" height="18px" viewBox="0 0 17 18" version="1.1" xmlns="http://www.w3.org/2000/svg" xmlns:xlink="http://www.w3.org/1999/xlink">
    <title>Group</title>
    <g id="Page-1" stroke="none" stroke-width="1" fill="none" fill-rule="evenodd">
        <g id="Group" transform="translate(1.000000, 0.000000)">
            <line x1="0.5" y1="16.7499998" x2="14.5" y2="16.7499998" id="Path" stroke="#000000" stroke-width="1.5" stroke-linecap="round"></line>
            <line x1="0.5" y1="16.7499998" x2="0.5" y2="8.74999975" id="Path" stroke="#000000" stroke-width="1.5" stroke-linecap="round"></line>
            <path d="M6.75,12.7499998 C6.75,13.1641998 7.08579,13.4999998 7.5,13.4999998 C7.91421,13.4999998 8.25,13.1641998 8.25,12.7499998 L6.75,12.7499998 Z M8.03033,0.21966975 C7.73744,-0.07322325 7.26256,-0.07322325 6.96967,0.21966975 L2.1967,4.99263975 C1.90381,5.28552975 1.90381,5.76040975 2.1967,6.05329975 C2.48959,6.34618975 2.96447,6.34618975 3.25736,6.05329975 L7.5,1.81065975 L11.7426,6.05329975 C12.0355,6.34618975 12.5104,6.34618975 12.8033,6.05329975 C13.0962,5.76040975 13.0962,5.28552975 12.8033,4.99263975 L8.03033,0.21966975 Z M8.25,12.7499998 L8.25,0.74999975 L6.75,0.74999975 L6.75,12.7499998 L8.25,12.7499998 Z" id="Shape" fill="#000000" fill-rule="nonzero"></path>
            <line x1="14.5" y1="16.7499998" x2="14.5" y2="8.74999975" id="Path" stroke="#000000" stroke-width="1.5" stroke-linecap="round"></line>
        </g>
    </g>
</svg>