<svg width="225" height="247" viewBox="0 0 225 247" fill="none" xmlns="http://www.w3.org/2000/svg">
<rect y="189.125" width="33.0711" height="47.5397" fill="#CBE7DF"/>
<rect x="29.9707" y="140.553" width="49.6067" height="96.113" fill="#DEEBE7"/>
<rect x="49.6067" y="167.422" width="29.9707" height="69.2427" fill="#D3E1DD"/>
<rect x="37.2051" y="150.887" width="12.4017" height="9.30125" fill="white"/>
<rect x="37.2051" y="169.49" width="12.4017" height="9.30125" fill="white"/>
<rect x="37.2051" y="188.092" width="12.4017" height="9.30125" fill="white"/>
<rect x="175.69" y="229.432" width="44.4393" height="7.23431" fill="#D4EEE7"/>
<rect x="192.226" y="217.029" width="13.4351" height="19.636" fill="#B2DED2"/>
<rect x="175.69" y="224.264" width="23.7699" height="12.4017" fill="#D4EEE7"/>
<path d="M90.4289 161.223L122.202 195.327H58.6559L90.4289 161.223Z" fill="#C0F5E7"/>
<path d="M58.3912 195.326L89.3954 236.665H30.4874L58.3912 195.326Z" fill="#CAE2DB"/>
<rect x="57.8745" y="195.326" width="79.5774" height="41.3389" fill="#DFF9F2"/>
<rect x="114.715" y="65.1094" width="96.113" height="119.883" rx="26" fill="#41CFAD"/>
<rect x="115.749" y="79.5781" width="83.7113" height="110.582" rx="26" fill="#2FA88B"/>
<rect x="224.961" y="156.525" width="27.9465" height="84.1853" rx="13.5207" transform="rotate(156.992 224.961 156.525)" fill="#E4EFFF"/>
<rect x="149.01" y="87.9883" width="29.1998" height="86.608" rx="11" transform="rotate(111.569 149.01 87.9883)" fill="#C7DDFF"/>
<rect x="84.823" y="92.3457" width="28.8874" height="60.5713" rx="13.9759" transform="rotate(-165.616 84.823 92.3457)" fill="#E4EFFF"/>
<rect x="119.883" y="78.5449" width="50.6402" height="113.682" fill="#D4FFF5"/>
<rect x="115.749" y="178.791" width="70.2761" height="57.8745" fill="#1D4684"/>
<ellipse cx="88.5779" cy="22.593" rx="19.5218" ry="14.2805" transform="rotate(-32.8873 88.5779 22.593)" fill="#FFDADA"/>
<rect x="110.582" y="75.4434" width="23.7699" height="125.05" rx="11.5" fill="#4D8CEB"/>
<rect x="122.983" y="75.4434" width="11.3682" height="23.7699" rx="5.5" fill="white"/>
<rect x="122.983" y="75.4434" width="11.3682" height="15.5021" fill="white"/>
<rect x="134.351" y="63.041" width="17.569" height="23.7699" rx="8.5" fill="#FFDADA"/>
<rect x="151.921" y="75.4434" width="39.272" height="125.05" rx="19" fill="#4D8CEB"/>
<rect x="151.921" y="75.4434" width="19.636" height="101.28" fill="#4D8CEB"/>
<rect x="151.921" y="75.4434" width="11.3682" height="23.7699" rx="5.5" fill="white"/>
<rect x="151.921" y="75.4434" width="11.3682" height="15.5021" fill="white"/>
<rect x="187.059" y="189.125" width="11.3682" height="23.7699" rx="5.5" transform="rotate(90 187.059 189.125)" fill="white"/>
<rect x="128.151" y="189.125" width="11.3682" height="17.569" rx="5.5" transform="rotate(90 128.151 189.125)" fill="white"/>
<rect x="120.916" y="189.125" width="11.3682" height="10.3347" transform="rotate(90 120.916 189.125)" fill="white"/>
<rect x="190.159" y="189.125" width="11.3682" height="15.5021" transform="rotate(90 190.159 189.125)" fill="white"/>
<rect x="180.858" y="75.0195" width="14.5734" height="69.2427" rx="5" transform="rotate(-2.39411 180.858 75.0195)" fill="#4AF4CC"/>
<circle cx="193.259" cy="142.618" r="12.4017" fill="#FFDADA"/>
<path d="M145.72 211.861L147.51 238.215H143.93L145.72 211.861Z" fill="white"/>
<circle cx="158.121" cy="155.02" r="2.06695" fill="white"/>
<circle cx="158.121" cy="176.723" r="2.06695" fill="white"/>
<circle cx="158.121" cy="112.649" r="2.06695" fill="white"/>
<circle cx="158.121" cy="134.352" r="2.06695" fill="white"/>
<path d="M154.553 65.8952C150.677 76.1282 144.768 77.928 134.352 78.0279C134.352 73.894 134.352 70.2768 134.352 70.2768C136.094 56.9774 127.717 66.1815 141.272 67.9574C154.828 69.7334 156.295 52.5957 154.553 65.8952Z" fill="#FFBABA"/>
<ellipse cx="155.021" cy="26.8709" rx="25.8368" ry="21.7029" fill="#2E7766"/>
<path d="M165.174 53.3198C161.212 67.9172 150.329 75.012 135.732 71.0501C128.252 69.0199 122.309 59.3547 123.664 40.5496C127.626 25.9522 137.71 15.8816 152.308 19.8435C166.905 23.8054 169.136 38.7225 165.174 53.3198Z" fill="#FFDADA"/>
<path d="M161.222 62.0075L156.001 33.8312L174.14 38.7544L161.222 62.0075Z" fill="#2E7766"/>
<path d="M126.82 25.7801C133.258 15.0451 151.831 16.7201 151.831 16.7201L170.564 36.1012L168.558 44.6013C168.558 44.6013 127.378 43.1397 124.815 34.2802C123.856 30.9675 125.059 28.7174 126.82 25.7801Z" fill="#2E7766"/>
<rect x="149.854" y="18.6016" width="15.5021" height="19.636" fill="#2E7766"/>
<ellipse cx="171.835" cy="43.2296" rx="8.18833" ry="12.6235" transform="rotate(17.7472 171.835 43.2296)" fill="#2E7766"/>
<ellipse cx="151.772" cy="33.8811" rx="13.3113" ry="13.5307" transform="rotate(58.9961 151.772 33.8811)" fill="#2E7766"/>
<ellipse cx="134.868" cy="29.19" rx="14.5937" ry="14.7417" transform="rotate(58.9961 134.868 29.19)" fill="#2E7766"/>
<ellipse cx="161.88" cy="55.8258" rx="7.90088" ry="5.34291" transform="rotate(-68.2306 161.88 55.8258)" fill="#FFDADA"/>
<path d="M187.32 27.7585C192.02 24.7781 184.421 40.3901 177.213 37.4622C173.954 36.1381 178.462 28.5402 178.462 28.5402C179.381 30.2921 182.619 30.7389 187.32 27.7585Z" fill="#2E7766"/>
<path d="M183.063 42.7583C185.77 45.6474 183.493 33.8239 177.884 34.3625C175.347 34.606 177.022 40.5178 177.022 40.5178C178.006 39.5356 180.356 39.8692 183.063 42.7583Z" fill="#2E7766"/>
<rect x="72.3431" y="215.996" width="17.569" height="20.6695" fill="#0F9873" fill-opacity="0.13"/>
</svg>
